<svg width="73" height="24" viewBox="0 0 73 24" fill="none" xmlns="http://www.w3.org/2000/svg">
<path d="M33.2251 7.71973H35.98C37.258 7.71973 38.1805 7.90592 38.7476 8.27832C39.3188 8.65072 39.6045 9.23893 39.6045 10.043C39.6045 10.5846 39.4648 11.0353 39.1855 11.395C38.9062 11.7547 38.5042 11.9811 37.9795 12.0742V12.1377C38.6312 12.2604 39.1094 12.5037 39.4141 12.8677C39.723 13.2274 39.8774 13.7161 39.8774 14.334C39.8774 15.1676 39.5854 15.8215 39.0015 16.2954C38.4217 16.7651 37.6134 17 36.5767 17H33.2251V7.71973ZM34.7422 11.5537H36.2021C36.8369 11.5537 37.3003 11.4543 37.5923 11.2554C37.8843 11.0522 38.0303 10.7095 38.0303 10.2271C38.0303 9.79118 37.8716 9.47591 37.5542 9.28125C37.241 9.08659 36.7417 8.98926 36.0562 8.98926H34.7422V11.5537ZM34.7422 12.7852V15.7241H36.3545C36.9893 15.7241 37.4674 15.6035 37.7891 15.3623C38.1149 15.1169 38.2778 14.7318 38.2778 14.207C38.2778 13.7246 38.1128 13.367 37.7827 13.1343C37.4526 12.9015 36.9512 12.7852 36.2783 12.7852H34.7422ZM47.8755 13.4771C47.8755 14.6239 47.5814 15.5189 46.9932 16.1621C46.4049 16.8053 45.5861 17.127 44.5366 17.127C43.8807 17.127 43.3009 16.9788 42.7974 16.6826C42.2938 16.3864 41.9066 15.9611 41.6357 15.4067C41.3649 14.8524 41.2295 14.2091 41.2295 13.4771C41.2295 12.3387 41.5215 11.45 42.1055 10.811C42.6895 10.172 43.5125 9.85254 44.5747 9.85254C45.5903 9.85254 46.3944 10.1805 46.9868 10.8364C47.5793 11.4881 47.8755 12.3683 47.8755 13.4771ZM42.7656 13.4771C42.7656 15.0978 43.3644 15.9082 44.562 15.9082C45.7469 15.9082 46.3394 15.0978 46.3394 13.4771C46.3394 11.8732 45.7427 11.0713 44.5493 11.0713C43.923 11.0713 43.4681 11.2786 43.1846 11.6934C42.9053 12.1081 42.7656 12.7026 42.7656 13.4771ZM51.0239 9.97949V13.5786C51.0239 13.9976 50.9901 14.6133 50.9224 15.4258L54.4453 9.97949H56.2671V17H54.8325V13.4644C54.8325 13.2697 54.8431 12.9544 54.8643 12.5186C54.8896 12.0827 54.9108 11.7653 54.9277 11.5664L51.4175 17H49.5957V9.97949H51.0239ZM52.8838 9.12256C51.9867 9.12256 51.3286 8.96175 50.9097 8.64014C50.495 8.31429 50.2643 7.77262 50.2178 7.01514H51.5698C51.5952 7.31982 51.6523 7.5568 51.7412 7.72607C51.8343 7.89535 51.9655 8.01807 52.1348 8.09424C52.3083 8.16618 52.5706 8.20215 52.9219 8.20215C53.3366 8.20215 53.6519 8.11117 53.8677 7.9292C54.0835 7.743 54.2147 7.43831 54.2612 7.01514H55.6387C55.5752 7.743 55.3192 8.2762 54.8706 8.61475C54.422 8.95329 53.7598 9.12256 52.8838 9.12256ZM63.6685 9.97949V11.1475H61.3833V17H59.8853V11.1475H57.6001V9.97949H63.6685ZM66.4487 9.97949V13.5786C66.4487 13.9976 66.4149 14.6133 66.3472 15.4258L69.8701 9.97949H71.6919V17H70.2573V13.4644C70.2573 13.2697 70.2679 12.9544 70.2891 12.5186C70.3145 12.0827 70.3356 11.7653 70.3525 11.5664L66.8423 17H65.0205V9.97949H66.4487Z" fill="#222222"/>
<path d="M13 16L18 12L13 8V11H4V13H13V16Z" fill="#D2001C"/>
<path d="M20 3H11C9.897 3 9 3.897 9 5V9H11V5H20V19H11V15H9V19C9 20.103 9.897 21 11 21H20C21.103 21 22 20.103 22 19V5C22 3.897 21.103 3 20 3Z" fill="#D2001C"/>
</svg>
